<?xml version="1.0" encoding="utf-8"?>
<!-- Generator: Adobe Illustrator 22.1.0, SVG Export Plug-In . SVG Version: 6.00 Build 0)  -->
<svg version="1.1" id="Layer_1" xmlns="http://www.w3.org/2000/svg" xmlns:xlink="http://www.w3.org/1999/xlink" x="0px" y="0px"
	 viewBox="0 0 438.9 281.5" style="enable-background:new 0 0 438.9 281.5;" xml:space="preserve">
<style type="text/css">
	.st0{fill:#FFFFFF;}
	.st1{fill:#FFA400;}
</style>
<title>logo</title>
<path class="st0" d="M273.7,172.1V87.2h28.8c13.3,0,24.1,10.8,24.1,24.1s-10.8,24.1-24.1,24.1l0,0h-0.9l-3.5,8.5l20.3,28.1h10.9
	l-20.6-28.4c17.9-3.4,29.6-20.7,26.1-38.5c-3-15.5-16.6-26.7-32.3-26.7h-37.6V172h8.8V172.1z"/>
<path class="st0" d="M15.8,172.1V87.2h28.8c13.3,0,24.1,10.8,24.1,24.1s-10.8,24.1-24.1,24.1l0,0h-0.9l-3.5,8.5L60.6,172h10.8
	l-20.6-28.4c17.9-3.4,29.6-20.7,26.1-38.5c-3-15.5-16.6-26.7-32.4-26.7H7V172h8.8V172.1z"/>
<polygon class="st0" points="86,81.9 86,172.1 94.8,172.1 94.8,78.4 "/>
<polygon class="st0" points="245.3,81.9 245.3,172.1 254,172.1 254,78.4 "/>
<polygon class="st0" points="231.4,87.2 234.9,78.4 180.1,78.4 180.1,172.1 234.9,172.1 231.4,163.3 188.8,163.3 188.8,117.4 
	220.7,117.4 220.7,108.6 188.8,108.6 188.8,87.2 "/>
<path class="st0" d="M388.6,83.7c-22.9,0-41.5,18.6-41.5,41.6s18.6,41.5,41.6,41.5c22.9,0,41.5-18.6,41.5-41.5
	C430.1,102.3,411.5,83.8,388.6,83.7L388.6,83.7z M388.6,175.6c-27.8,0-50.3-22.5-50.3-50.3S360.8,75,388.6,75s50.3,22.5,50.3,50.3
	l0,0C438.8,153,416.3,175.5,388.6,175.6z"/>
<path class="st0" d="M143.5,163.3h-29.1V87.2h29.1c5.9,0,10.7,4.8,10.7,10.7c0,5.9-4.8,10.7-10.7,10.7h-0.6l-3.5,8.8h4.2
	c12.7,0,22.9,10.3,22.9,22.9C166.4,153,156.2,163.3,143.5,163.3z M157.1,111.7c7.6-7.6,7.7-19.9,0.2-27.5c-3.7-3.7-8.6-5.8-13.8-5.8
	h-37.9V172h37.9c17.5,0.1,31.7-14.1,31.8-31.6C175.3,128.2,168.3,117,157.1,111.7z"/>
<path class="st0" d="M189,278v-84.9h28.8c13.3,0,24.1,10.8,24.1,24.1s-10.8,24.1-24.1,24.1H217l-3.5,8.5l20.3,28.1h10.8L224,249.5
	c17.8-3.6,29.4-20.9,25.8-38.7c-3.1-15.3-16.4-26.3-32-26.5h-37.6V278H189z"/>
<path class="st0" d="M132.9,195.5l18.4,45.8h-36.8L132.9,195.5L132.9,195.5z M127.9,184.3L90.4,278h9.5l11.2-27.8h43.8L166,278h9.5
	l-37.6-93.6L127.9,184.3z"/>
<path class="st0" d="M288.3,195.5l18.4,45.8h-36.8L288.3,195.5L288.3,195.5z M283.3,184.3L245.7,278h9.4l11.2-27.8h43.8l11.2,27.8
	h9.5l-37.5-93.6L283.3,184.3z"/>
<path class="st0" d="M50.3,272.7c-22.9,0-41.5-18.6-41.6-41.5s18.6-41.5,41.5-41.6c12.3,0,24,5.4,31.9,14.9l3.7-8.9
	c-19.7-19.6-51.5-19.6-71.1,0s-19.6,51.5,0.1,71.1s51.5,19.6,71.1-0.1c2.8-2.8,5.2-5.8,7.2-9.2H82.4
	C74.5,267.1,62.7,272.7,50.3,272.7z"/>
<polygon class="st0" points="423,184.3 382.5,242.5 342,184.4 342,184.3 341.9,184.3 333.2,184.3 333.2,277.9 342,277.9 342,201 
	379,253.4 386,253.4 423.1,200.8 423.1,277.9 431.9,277.9 431.9,184.3 "/>
<rect x="7" class="st1" width="424.9" height="54.1"/>
</svg>
